<svg xmlns="http://www.w3.org/2000/svg" width="24.007" height="24.004" viewBox="0 0 24.007 24.004">
  <path id="_1608418_o_send_icon" data-name="1608418_o_send_icon" d="M23.389-.862A.836.836,0,0,1,23.751,0l-3.428,20.56a.844.844,0,0,1-.429.6.822.822,0,0,1-.415.107.9.9,0,0,1-.321-.067L12.1,18.319,8.109,22.7a.79.79,0,0,1-.629.281.763.763,0,0,1-.308-.054.8.8,0,0,1-.4-.315.862.862,0,0,1-.147-.489V16.07L.3,13.487a.786.786,0,0,1-.536-.736.781.781,0,0,1,.429-.79L22.479-.889a.778.778,0,0,1,.91.027ZM18.809,19.2l2.96-17.709-19.2,11.07,4.5,1.834L18.622,5.844l-6.4,10.668Z" transform="translate(0.241 1.023)" fill="#333"/>
</svg>
